<svg width="23" height="27" viewBox="0 0 23 27" fill="none" xmlns="http://www.w3.org/2000/svg">
<path d="M13.5 7.69961L13.5 24.0996C13.5 24.6663 13.3084 25.1413 12.925 25.5246C12.5417 25.9079 12.0667 26.0996 11.5 26.0996C10.9334 26.0996 10.4584 25.9079 10.075 25.5246C9.69169 25.1413 9.50002 24.6663 9.50002 24.0996L9.50002 7.69961L3.70002 13.4996C3.33336 13.8663 2.86669 14.0496 2.30002 14.0496C1.73336 14.0496 1.26669 13.8663 0.900024 13.4996C0.533358 13.1329 0.350023 12.6663 0.350023 12.0996C0.350023 11.5329 0.533358 11.0663 0.900024 10.6996L10.1 1.49961C10.5 1.09961 10.9667 0.899609 11.5 0.899609C12.0334 0.899609 12.5 1.09961 12.9 1.49961L22.1 10.6996C22.4667 11.0663 22.65 11.5329 22.65 12.0996C22.65 12.6663 22.4667 13.1329 22.1 13.4996C21.7334 13.8663 21.2667 14.0496 20.7 14.0496C20.1334 14.0496 19.6667 13.8663 19.3 13.4996L13.5 7.69961Z" fill="black"/>
</svg>
