<svg width="123" height="26" viewBox="0 0 123 26" fill="none" xmlns="http://www.w3.org/2000/svg">
<path d="M9.68275 25.724C7.89075 25.724 6.29075 25.3507 4.88275 24.604C3.49608 23.836 2.40808 22.7907 1.61875 21.468C0.829417 20.1453 0.43475 18.6413 0.43475 16.956C0.43475 15.2493 0.829417 13.7453 1.61875 12.444C2.40808 11.1213 3.49608 10.0867 4.88275 9.34C6.29075 8.59333 7.89075 8.22 9.68275 8.22C11.3468 8.22 12.8081 8.56133 14.0668 9.244C15.3468 9.90533 16.3174 10.8867 16.9788 12.188L13.9068 13.98C13.3948 13.1693 12.7654 12.572 12.0188 12.188C11.2934 11.804 10.5041 11.612 9.65075 11.612C8.66942 11.612 7.78408 11.8253 6.99475 12.252C6.20542 12.6787 5.58675 13.2973 5.13875 14.108C4.69075 14.8973 4.46675 15.8467 4.46675 16.956C4.46675 18.0653 4.69075 19.0253 5.13875 19.836C5.58675 20.6253 6.20542 21.2333 6.99475 21.66C7.78408 22.0867 8.66942 22.3 9.65075 22.3C10.5041 22.3 11.2934 22.108 12.0188 21.724C12.7654 21.34 13.3948 20.7427 13.9068 19.932L16.9788 21.724C16.3174 23.004 15.3468 23.996 14.0668 24.7C12.8081 25.3827 11.3468 25.724 9.68275 25.724ZM20.2803 25.5V8.412H24.2803V25.5H20.2803ZM22.2963 5.596C21.5496 5.596 20.9309 5.36133 20.4403 4.892C19.9709 4.42267 19.7363 3.85733 19.7363 3.196C19.7363 2.51333 19.9709 1.948 20.4403 1.5C20.9309 1.03067 21.5496 0.796 22.2963 0.796C23.0429 0.796 23.6509 1.02 24.1203 1.468C24.6109 1.89467 24.8563 2.43867 24.8563 3.1C24.8563 3.804 24.6216 4.40133 24.1523 4.892C23.6829 5.36133 23.0643 5.596 22.2963 5.596ZM34.0743 25.5L26.7462 8.412H30.9062L37.2103 23.484H35.1623L41.6903 8.412H45.5303L38.2023 25.5H34.0743ZM48.0303 25.5V8.412H52.0303V25.5H48.0303ZM50.0463 5.596C49.2996 5.596 48.6809 5.36133 48.1903 4.892C47.7209 4.42267 47.4863 3.85733 47.4863 3.196C47.4863 2.51333 47.7209 1.948 48.1903 1.5C48.6809 1.03067 49.2996 0.796 50.0463 0.796C50.7929 0.796 51.4009 1.02 51.8703 1.468C52.3609 1.89467 52.6063 2.43867 52.6063 3.1C52.6063 3.804 52.3716 4.40133 51.9023 4.892C51.4329 5.36133 50.8143 5.596 50.0463 5.596ZM65.1203 25.724C63.3283 25.724 61.7283 25.3507 60.3203 24.604C58.9336 23.836 57.8456 22.7907 57.0563 21.468C56.2669 20.1453 55.8723 18.6413 55.8723 16.956C55.8723 15.2493 56.2669 13.7453 57.0563 12.444C57.8456 11.1213 58.9336 10.0867 60.3203 9.34C61.7283 8.59333 63.3283 8.22 65.1203 8.22C66.7843 8.22 68.2456 8.56133 69.5043 9.244C70.7843 9.90533 71.7549 10.8867 72.4163 12.188L69.3443 13.98C68.8323 13.1693 68.2029 12.572 67.4563 12.188C66.7309 11.804 65.9416 11.612 65.0883 11.612C64.1069 11.612 63.2216 11.8253 62.4323 12.252C61.6429 12.6787 61.0243 13.2973 60.5763 14.108C60.1283 14.8973 59.9043 15.8467 59.9043 16.956C59.9043 18.0653 60.1283 19.0253 60.5763 19.836C61.0243 20.6253 61.6429 21.2333 62.4323 21.66C63.2216 22.0867 64.1069 22.3 65.0883 22.3C65.9416 22.3 66.7309 22.108 67.4563 21.724C68.2029 21.34 68.8323 20.7427 69.3443 19.932L72.4163 21.724C71.7549 23.004 70.7843 23.996 69.5043 24.7C68.2456 25.3827 66.7843 25.724 65.1203 25.724ZM83.304 25.724C81.5547 25.724 79.9973 25.3507 78.632 24.604C77.2667 23.836 76.1893 22.7907 75.4 21.468C74.6107 20.1453 74.216 18.6413 74.216 16.956C74.216 15.2493 74.6107 13.7453 75.4 12.444C76.1893 11.1213 77.2667 10.0867 78.632 9.34C79.9973 8.59333 81.5547 8.22 83.304 8.22C85.0747 8.22 86.6427 8.59333 88.008 9.34C89.3947 10.0867 90.472 11.1107 91.24 12.412C92.0293 13.7133 92.424 15.228 92.424 16.956C92.424 18.6413 92.0293 20.1453 91.24 21.468C90.472 22.7907 89.3947 23.836 88.008 24.604C86.6427 25.3507 85.0747 25.724 83.304 25.724ZM83.304 22.3C84.2853 22.3 85.16 22.0867 85.928 21.66C86.696 21.2333 87.2933 20.6147 87.72 19.804C88.168 18.9933 88.392 18.044 88.392 16.956C88.392 15.8467 88.168 14.8973 87.72 14.108C87.2933 13.2973 86.696 12.6787 85.928 12.252C85.16 11.8253 84.296 11.612 83.336 11.612C82.3547 11.612 81.48 11.8253 80.712 12.252C79.9653 12.6787 79.368 13.2973 78.92 14.108C78.472 14.8973 78.248 15.8467 78.248 16.956C78.248 18.044 78.472 18.9933 78.92 19.804C79.368 20.6147 79.9653 21.2333 80.712 21.66C81.48 22.0867 82.344 22.3 83.304 22.3ZM96.249 25.5V8.412H100.249V25.5H96.249ZM98.265 5.596C97.5183 5.596 96.8997 5.36133 96.409 4.892C95.9397 4.42267 95.705 3.85733 95.705 3.196C95.705 2.51333 95.9397 1.948 96.409 1.5C96.8997 1.03067 97.5183 0.796 98.265 0.796C99.0117 0.796 99.6197 1.02 100.089 1.468C100.58 1.89467 100.825 2.43867 100.825 3.1C100.825 3.804 100.59 4.40133 100.121 4.892C99.6517 5.36133 99.033 5.596 98.265 5.596ZM115.195 8.22C116.56 8.22 117.776 8.48667 118.843 9.02C119.931 9.55333 120.784 10.3747 121.403 11.484C122.022 12.572 122.331 13.98 122.331 15.708V25.5H118.331V16.22C118.331 14.7053 117.968 13.5747 117.243 12.828C116.539 12.0813 115.547 11.708 114.267 11.708C113.328 11.708 112.496 11.9 111.771 12.284C111.046 12.668 110.48 13.244 110.075 14.012C109.691 14.7587 109.499 15.708 109.499 16.86V25.5H105.499V8.412H109.307V13.02L108.635 11.612C109.232 10.524 110.096 9.692 111.227 9.116C112.379 8.51867 113.702 8.22 115.195 8.22Z" fill="black"/>
</svg>
